<svg xmlns="http://www.w3.org/2000/svg" xmlns:xlink="http://www.w3.org/1999/xlink" xmlns:lucid="lucid" width="1502" height="1222"><g transform="translate(161.00000000325252 141.0000000026405)" lucid:page-tab-id="0_0"><path d="M-500-2000h4000v8000H-500z" fill="#fff"/><path d="M-160-134a6 6 0 0 1 6-6h1488a6 6 0 0 1 6 6v1208a6 6 0 0 1-6 6H-154a6 6 0 0 1-6-6z" stroke="#000" stroke-width="2" fill="#fff"/><use xlink:href="#a" transform="matrix(1,0,0,1,-155,-135) translate(745 560.3559027777778)"/><use xlink:href="#a" transform="matrix(1,0,0,1,-155,-135) translate(745 592.6215277777778)"/><use xlink:href="#a" transform="matrix(1,0,0,1,-155,-135) translate(745 624.8871527777778)"/><use xlink:href="#b" transform="matrix(1,0,0,1,-155,-135) translate(745 657.1527777777778)"/><path d="M440 766a6 6 0 0 1 6-6h148a6 6 0 0 1 6 6v108a6 6 0 0 1-6 6H446a6 6 0 0 1-6-6z" stroke="#000" stroke-width="2" fill="#e08fff"/><use xlink:href="#c" transform="matrix(1,0,0,1,452,772) translate(26.968098958333336 57.52777777777778)"/><path d="M835 766a6 6 0 0 1 6-6h148a6 6 0 0 1 6 6v108a6 6 0 0 1-6 6H841a6 6 0 0 1-6-6z" stroke="#000" stroke-width="2" fill="#ffe342"/><use xlink:href="#d" transform="matrix(1,0,0,1,847,772) translate(26.968098958333336 39.52777777777778)"/><use xlink:href="#e" transform="matrix(1,0,0,1,847,772) translate(18.585937500000007 71.79340277777777)"/><path d="M520 758.5v-169a6 6 0 0 0-6-6H413a6 6 0 0 1-6-6V424.38" stroke="#3a414a" fill="none"/><path d="M520.48 759h-.96v-.5h.96z" stroke="#3a414a" stroke-width=".05" fill="#3a414a"/><path d="M407 409.62l4.63 14.26h-9.26z" stroke="#3a414a" fill="#3a414a"/><path d="M352.5 316H251.38" stroke="#3a414a" fill="none"/><path d="M353 316.48h-.5v-.96h.5z" stroke="#3a414a" stroke-width=".05" fill="#3a414a"/><path d="M236.62 316l14.26-4.63v9.26z" stroke="#3a414a" fill="#3a414a"/><path d="M486.5 60H385.38" stroke="#3a414a" fill="none"/><path d="M487 60.48h-.5v-.95h.5z" stroke="#3a414a" stroke-width=".05" fill="#3a414a"/><path d="M370.62 60l14.26-4.63v9.27z" stroke="#3a414a" fill="#3a414a"/><path d="M654 254.5v-45a6 6 0 0 0-6-6H540.15a6 6 0 0 1-6-6v-29.12" stroke="#3a414a" fill="none"/><path d="M654.48 255h-.96v-.5h.96z" stroke="#3a414a" stroke-width=".05" fill="#3a414a"/><path d="M534.15 153.62l4.63 14.26h-9.27z" stroke="#3a414a" fill="#3a414a"/><path d="M654 254.5V210a6 6 0 0 1 6-6h90a6 6 0 0 0 6-6v-28.62" stroke="#3a414a" fill="none"/><path d="M654.48 255h-.96v-.5h.96z" stroke="#3a414a" stroke-width=".05" fill="#3a414a"/><path d="M756 154.62l4.63 14.26h-9.26z" stroke="#3a414a" fill="#3a414a"/><path d="M520 758.5V590a6 6 0 0 1 6-6h88a6 6 0 0 0 6-6V425.38" stroke="#3a414a" fill="none"/><path d="M520.48 759h-.96v-.5h.96z" stroke="#3a414a" stroke-width=".05" fill="#3a414a"/><path d="M620 410.62l4.63 14.26h-9.26z" stroke="#3a414a" fill="#3a414a"/><path d="M735.5 316h82.45" stroke="#3a414a" fill="none"/><path d="M735.5 316.48h-.5v-.96h.5z" stroke="#3a414a" stroke-width=".05" fill="#3a414a"/><path d="M832.7 316l-14.25 4.63v-9.26z" stroke="#3a414a" fill="#3a414a"/><path d="M869.5 60h93.12" stroke="#3a414a" fill="none"/><path d="M869.5 60.48h-.5v-.95h.5z" stroke="#3a414a" stroke-width=".05" fill="#3a414a"/><path d="M977.38 60l-14.26 4.64v-9.27z" stroke="#3a414a" fill="#3a414a"/><path d="M601.5 820h216.12" stroke="#3a414a" fill="none"/><path d="M601.5 820.48h-.5v-.96h.5z" stroke="#3a414a" stroke-width=".05" fill="#3a414a"/><path d="M832.38 820l-14.26 4.63v-9.26z" stroke="#3a414a" fill="#3a414a"/><path d="M996.5 820H1129a6 6 0 0 0 6-6V697.38" stroke="#3a414a" fill="none"/><path d="M996.5 820.48h-.5v-.96h.5z" stroke="#3a414a" stroke-width=".05" fill="#3a414a"/><path d="M1135 682.62l4.63 14.26h-9.27z" stroke="#3a414a" fill="#3a414a"/><path d="M915.33 413.5v305.33a.17.17 0 0 1-.16.17.17.17 0 0 0-.17.17v23.45" stroke="#3a414a" fill="none"/><path d="M915.8 413.5h-.94v-.5h.95z" stroke="#3a414a" stroke-width=".05" fill="#3a414a"/><path d="M915 757.38l-4.63-14.26h9.26z" stroke="#3a414a" fill="#3a414a"/><path d="M174 38a6 6 0 0 1 6-6h148a6 6 0 0 1 6 6v108a6 6 0 0 1-6 6H180a6 6 0 0 1-6-6z" stroke="#fcce14" stroke-width="2" fill="#fff3d9"/><use xlink:href="#d" transform="matrix(1,0,0,1,185.99999999999994,44) translate(26.968098958333336 39.52777777777778)"/><use xlink:href="#e" transform="matrix(1,0,0,1,185.99999999999994,44) translate(18.585937500000007 71.79340277777777)"/><path d="M191.33 21.67a6 6 0 0 1 6-6h148a6 6 0 0 1 6 6v108a6 6 0 0 1-6 6h-148a6 6 0 0 1-6-6z" stroke="#fcce14" stroke-width="2" fill="#fff3d9"/><use xlink:href="#f" transform="matrix(1,0,0,1,203.33333333333337,27.66666666666663) translate(18.585937500000007 39.52777777777778)"/><use xlink:href="#g" transform="matrix(1,0,0,1,203.33333333333337,27.66666666666663) translate(18.613064236111114 71.79340277777777)"/><path d="M208 6a6 6 0 0 1 6-6h148a6 6 0 0 1 6 6v108a6 6 0 0 1-6 6H214a6 6 0 0 1-6-6z" stroke="#fcce14" stroke-width="2" fill="#fff3d9"/><use xlink:href="#f" transform="matrix(1,0,0,1,220,11.999999999999993) translate(18.585937500000007 39.52777777777778)"/><use xlink:href="#g" transform="matrix(1,0,0,1,220,11.999999999999993) translate(18.613064236111114 71.79340277777777)"/><path d="M461 37a6 6 0 0 1 6-6h148a6 6 0 0 1 6 6v108a6 6 0 0 1-6 6H467a6 6 0 0 1-6-6z" stroke="#54c45e" stroke-width="2" fill="#c3f7c8"/><use xlink:href="#h" transform="matrix(1,0,0,1,473,43) translate(43.813802083333336 39.52777777777778)"/><use xlink:href="#g" transform="matrix(1,0,0,1,473,43) translate(18.613064236111114 71.79340277777777)"/><path d="M474.33 20.33a6 6 0 0 1 6-6h148a6 6 0 0 1 6 6v108a6 6 0 0 1-6 6h-148a6 6 0 0 1-6-6z" stroke="#54c45e" stroke-width="2" fill="#c3f7c8"/><use xlink:href="#h" transform="matrix(1,0,0,1,486.33333333333326,26.33333333333337) translate(43.813802083333336 39.52777777777778)"/><use xlink:href="#g" transform="matrix(1,0,0,1,486.33333333333326,26.33333333333337) translate(18.613064236111114 71.79340277777777)"/><path d="M488 6a6 6 0 0 1 6-6h148a6 6 0 0 1 6 6v108a6 6 0 0 1-6 6H494a6 6 0 0 1-6-6z" stroke="#54c45e" stroke-width="2" fill="#c3f7c8"/><use xlink:href="#h" transform="matrix(1,0,0,1,500,11.999999999999993) translate(43.813802083333336 39.52777777777778)"/><use xlink:href="#g" transform="matrix(1,0,0,1,500,11.999999999999993) translate(18.613064236111114 71.79340277777777)"/><path d="M674 38a6 6 0 0 1 6-6h148a6 6 0 0 1 6 6v108a6 6 0 0 1-6 6H680a6 6 0 0 1-6-6z" stroke="#e08fff" stroke-width="2" fill="#f4d9ff"/><use xlink:href="#i" transform="matrix(1,0,0,1,686,44) translate(16.811848958333336 39.52777777777778)"/><use xlink:href="#g" transform="matrix(1,0,0,1,686,44) translate(18.613064236111114 71.79340277777777)"/><path d="M691 21a6 6 0 0 1 6-6h148a6 6 0 0 1 6 6v108a6 6 0 0 1-6 6H697a6 6 0 0 1-6-6z" stroke="#e08fff" stroke-width="2" fill="#f4d9ff"/><use xlink:href="#i" transform="matrix(1,0,0,1,703,27) translate(16.811848958333336 39.52777777777778)"/><use xlink:href="#g" transform="matrix(1,0,0,1,703,27) translate(18.613064236111114 71.79340277777777)"/><path d="M708 6a6 6 0 0 1 6-6h148a6 6 0 0 1 6 6v108a6 6 0 0 1-6 6H714a6 6 0 0 1-6-6z" stroke="#e08fff" stroke-width="2" fill="#f4d9ff"/><use xlink:href="#i" transform="matrix(1,0,0,1,720,11.999999999999993) translate(16.811848958333336 39.52777777777778)"/><use xlink:href="#g" transform="matrix(1,0,0,1,720,11.999999999999993) translate(18.613064236111114 71.79340277777777)"/><path d="M980 38a6 6 0 0 1 6-6h148a6 6 0 0 1 6 6v108a6 6 0 0 1-6 6H986a6 6 0 0 1-6-6z" stroke="#fcce14" stroke-width="2" fill="#fff3d9"/><use xlink:href="#d" transform="matrix(1,0,0,1,992,44) translate(26.968098958333336 39.52777777777778)"/><use xlink:href="#e" transform="matrix(1,0,0,1,992,44) translate(18.585937500000007 71.79340277777777)"/><path d="M997.33 21.67a6 6 0 0 1 6-6h148a6 6 0 0 1 6 6v108a6 6 0 0 1-6 6h-148a6 6 0 0 1-6-6z" stroke="#fcce14" stroke-width="2" fill="#fff3d9"/><use xlink:href="#f" transform="matrix(1,0,0,1,1009.3333333333333,27.66666666666663) translate(18.585937500000007 39.52777777777778)"/><use xlink:href="#g" transform="matrix(1,0,0,1,1009.3333333333333,27.66666666666663) translate(18.613064236111114 71.79340277777777)"/><path d="M1014 6a6 6 0 0 1 6-6h148a6 6 0 0 1 6 6v108a6 6 0 0 1-6 6h-148a6 6 0 0 1-6-6z" stroke="#fcce14" stroke-width="2" fill="#fff3d9"/><use xlink:href="#f" transform="matrix(1,0,0,1,1026,11.999999999999993) translate(18.585937500000007 39.52777777777778)"/><use xlink:href="#g" transform="matrix(1,0,0,1,1026,11.999999999999993) translate(18.613064236111114 71.79340277777777)"/><path d="M40 294a6 6 0 0 1 6-6h148a6 6 0 0 1 6 6v108a6 6 0 0 1-6 6H46a6 6 0 0 1-6-6z" stroke="#fcce14" stroke-width="2" fill="#fff3d9"/><use xlink:href="#d" transform="matrix(1,0,0,1,52,300) translate(26.968098958333336 39.52777777777778)"/><use xlink:href="#e" transform="matrix(1,0,0,1,52,300) translate(18.585937500000007 71.79340277777777)"/><path d="M57.33 277.67a6 6 0 0 1 6-6h148a6 6 0 0 1 6 6v108a6 6 0 0 1-6 6h-148a6 6 0 0 1-6-6z" stroke="#fcce14" stroke-width="2" fill="#fff3d9"/><use xlink:href="#f" transform="matrix(1,0,0,1,69.33333333333337,283.66666666666663) translate(18.585937500000007 39.52777777777778)"/><use xlink:href="#g" transform="matrix(1,0,0,1,69.33333333333337,283.66666666666663) translate(18.613064236111114 71.79340277777777)"/><path d="M74 262a6 6 0 0 1 6-6h148a6 6 0 0 1 6 6v108a6 6 0 0 1-6 6H80a6 6 0 0 1-6-6z" stroke="#fcce14" stroke-width="2" fill="#fff3d9"/><use xlink:href="#f" transform="matrix(1,0,0,1,86,268) translate(18.585937500000007 39.52777777777778)"/><use xlink:href="#g" transform="matrix(1,0,0,1,86,268) translate(18.613064236111114 71.79340277777777)"/><path d="M327 293a6 6 0 0 1 6-6h148a6 6 0 0 1 6 6v108a6 6 0 0 1-6 6H333a6 6 0 0 1-6-6z" stroke="#54c45e" stroke-width="2" fill="#c3f7c8"/><use xlink:href="#h" transform="matrix(1,0,0,1,339,299) translate(43.813802083333336 39.52777777777778)"/><use xlink:href="#g" transform="matrix(1,0,0,1,339,299) translate(18.613064236111114 71.79340277777777)"/><path d="M340.33 276.33a6 6 0 0 1 6-6h148a6 6 0 0 1 6 6v108a6 6 0 0 1-6 6h-148a6 6 0 0 1-6-6z" stroke="#54c45e" stroke-width="2" fill="#c3f7c8"/><use xlink:href="#h" transform="matrix(1,0,0,1,352.3333333333333,282.33333333333337) translate(43.813802083333336 39.52777777777778)"/><use xlink:href="#g" transform="matrix(1,0,0,1,352.3333333333333,282.33333333333337) translate(18.613064236111114 71.79340277777777)"/><path d="M354 262a6 6 0 0 1 6-6h148a6 6 0 0 1 6 6v108a6 6 0 0 1-6 6H360a6 6 0 0 1-6-6z" stroke="#54c45e" stroke-width="2" fill="#c3f7c8"/><use xlink:href="#h" transform="matrix(1,0,0,1,366,268) translate(43.813802083333336 39.52777777777778)"/><use xlink:href="#g" transform="matrix(1,0,0,1,366,268) translate(18.613064236111114 71.79340277777777)"/><path d="M540 294a6 6 0 0 1 6-6h148a6 6 0 0 1 6 6v108a6 6 0 0 1-6 6H546a6 6 0 0 1-6-6z" stroke="#e08fff" stroke-width="2" fill="#f4d9ff"/><use xlink:href="#i" transform="matrix(1,0,0,1,552,300) translate(16.811848958333336 39.52777777777778)"/><use xlink:href="#g" transform="matrix(1,0,0,1,552,300) translate(18.613064236111114 71.79340277777777)"/><path d="M557 277a6 6 0 0 1 6-6h148a6 6 0 0 1 6 6v108a6 6 0 0 1-6 6H563a6 6 0 0 1-6-6z" stroke="#e08fff" stroke-width="2" fill="#f4d9ff"/><use xlink:href="#i" transform="matrix(1,0,0,1,569.0000000000001,283) translate(16.811848958333336 39.52777777777778)"/><use xlink:href="#g" transform="matrix(1,0,0,1,569.0000000000001,283) translate(18.613064236111114 71.79340277777777)"/><path d="M574 262a6 6 0 0 1 6-6h148a6 6 0 0 1 6 6v108a6 6 0 0 1-6 6H580a6 6 0 0 1-6-6z" stroke="#e08fff" stroke-width="2" fill="#f4d9ff"/><use xlink:href="#i" transform="matrix(1,0,0,1,586,268) translate(16.811848958333336 39.52777777777778)"/><use xlink:href="#g" transform="matrix(1,0,0,1,586,268) translate(18.613064236111114 71.79340277777777)"/><path d="M835.33 298a6 6 0 0 1 6-6h148a6 6 0 0 1 6 6v108a6 6 0 0 1-6 6h-148a6 6 0 0 1-6-6z" stroke="#fcce14" stroke-width="2" fill="#fff3d9"/><use xlink:href="#d" transform="matrix(1,0,0,1,847.3333333333356,304) translate(26.968098958333336 39.52777777777778)"/><use xlink:href="#e" transform="matrix(1,0,0,1,847.3333333333356,304) translate(18.585937500000007 71.79340277777777)"/><path d="M852.67 281.67a6 6 0 0 1 6-6h148a6 6 0 0 1 6 6v108a6 6 0 0 1-6 6h-148a6 6 0 0 1-6-6z" stroke="#fcce14" stroke-width="2" fill="#fff3d9"/><use xlink:href="#f" transform="matrix(1,0,0,1,864.666666666669,287.66666666666663) translate(18.585937500000007 39.52777777777778)"/><use xlink:href="#g" transform="matrix(1,0,0,1,864.666666666669,287.66666666666663) translate(18.613064236111114 71.79340277777777)"/><path d="M869.33 266a6 6 0 0 1 6-6h148a6 6 0 0 1 6 6v108a6 6 0 0 1-6 6h-148a6 6 0 0 1-6-6z" stroke="#fcce14" stroke-width="2" fill="#fff3d9"/><use xlink:href="#f" transform="matrix(1,0,0,1,881.3333333333358,272) translate(18.585937500000007 39.52777777777778)"/><use xlink:href="#g" transform="matrix(1,0,0,1,881.3333333333358,272) translate(18.613064236111114 71.79340277777777)"/><path d="M1060 566a6 6 0 0 1 6-6h148a6 6 0 0 1 6 6v108a6 6 0 0 1-6 6h-148a6 6 0 0 1-6-6z" stroke="#6db1ff" stroke-width="2" fill="#edf5ff"/><use xlink:href="#j" transform="matrix(1,0,0,1,1072,572) translate(22.41080729166667 57.52777777777778)"/><path d="M1080 546a6 6 0 0 1 6-6h148a6 6 0 0 1 6 6v108a6 6 0 0 1-6 6h-148a6 6 0 0 1-6-6z" stroke="#6db1ff" stroke-width="2" fill="#edf5ff"/><use xlink:href="#j" transform="matrix(1,0,0,1,1092,552) translate(22.41080729166667 57.52777777777778)"/><path d="M1098.66 526a6 6 0 0 1 6-6h148a6 6 0 0 1 6 6v108a6 6 0 0 1-6 6h-148a6 6 0 0 1-6-6z" stroke="#6db1ff" stroke-width="2" fill="#edf5ff"/><use xlink:href="#j" transform="matrix(1,0,0,1,1110.6562500000002,532) translate(22.41080729166667 57.52777777777778)"/><path d="M174 38a6 6 0 0 1 6-6h148a6 6 0 0 1 6 6v108a6 6 0 0 1-6 6H180a6 6 0 0 1-6-6z" stroke="#fcce14" stroke-width="2" fill="#fff3d9"/><use xlink:href="#d" transform="matrix(1,0,0,1,185.99999999999994,44) translate(26.968098958333336 39.52777777777778)"/><use xlink:href="#e" transform="matrix(1,0,0,1,185.99999999999994,44) translate(18.585937500000007 71.79340277777777)"/><path d="M191.33 21.67a6 6 0 0 1 6-6h148a6 6 0 0 1 6 6v108a6 6 0 0 1-6 6h-148a6 6 0 0 1-6-6z" stroke="#fcce14" stroke-width="2" fill="#fff3d9"/><use xlink:href="#f" transform="matrix(1,0,0,1,203.33333333333337,27.66666666666663) translate(18.585937500000007 39.52777777777778)"/><use xlink:href="#g" transform="matrix(1,0,0,1,203.33333333333337,27.66666666666663) translate(18.613064236111114 71.79340277777777)"/><path d="M208 6a6 6 0 0 1 6-6h148a6 6 0 0 1 6 6v108a6 6 0 0 1-6 6H214a6 6 0 0 1-6-6z" stroke="#fcce14" stroke-width="2" fill="#fff3d9"/><use xlink:href="#f" transform="matrix(1,0,0,1,220,11.999999999999993) translate(18.585937500000007 39.52777777777778)"/><use xlink:href="#g" transform="matrix(1,0,0,1,220,11.999999999999993) translate(18.613064236111114 71.79340277777777)"/><path d="M461 37a6 6 0 0 1 6-6h148a6 6 0 0 1 6 6v108a6 6 0 0 1-6 6H467a6 6 0 0 1-6-6z" stroke="#54c45e" stroke-width="2" fill="#c3f7c8"/><use xlink:href="#h" transform="matrix(1,0,0,1,473,43) translate(43.813802083333336 39.52777777777778)"/><use xlink:href="#g" transform="matrix(1,0,0,1,473,43) translate(18.613064236111114 71.79340277777777)"/><path d="M474.33 20.33a6 6 0 0 1 6-6h148a6 6 0 0 1 6 6v108a6 6 0 0 1-6 6h-148a6 6 0 0 1-6-6z" stroke="#54c45e" stroke-width="2" fill="#c3f7c8"/><use xlink:href="#h" transform="matrix(1,0,0,1,486.33333333333326,26.33333333333337) translate(43.813802083333336 39.52777777777778)"/><use xlink:href="#g" transform="matrix(1,0,0,1,486.33333333333326,26.33333333333337) translate(18.613064236111114 71.79340277777777)"/><path d="M488 6a6 6 0 0 1 6-6h148a6 6 0 0 1 6 6v108a6 6 0 0 1-6 6H494a6 6 0 0 1-6-6z" stroke="#54c45e" stroke-width="2" fill="#c3f7c8"/><use xlink:href="#h" transform="matrix(1,0,0,1,500,11.999999999999993) translate(43.813802083333336 39.52777777777778)"/><use xlink:href="#g" transform="matrix(1,0,0,1,500,11.999999999999993) translate(18.613064236111114 71.79340277777777)"/><path d="M674 38a6 6 0 0 1 6-6h148a6 6 0 0 1 6 6v108a6 6 0 0 1-6 6H680a6 6 0 0 1-6-6z" stroke="#e08fff" stroke-width="2" fill="#f4d9ff"/><use xlink:href="#i" transform="matrix(1,0,0,1,686,44) translate(16.811848958333336 39.52777777777778)"/><use xlink:href="#g" transform="matrix(1,0,0,1,686,44) translate(18.613064236111114 71.79340277777777)"/><path d="M691 21a6 6 0 0 1 6-6h148a6 6 0 0 1 6 6v108a6 6 0 0 1-6 6H697a6 6 0 0 1-6-6z" stroke="#e08fff" stroke-width="2" fill="#f4d9ff"/><use xlink:href="#i" transform="matrix(1,0,0,1,703,27) translate(16.811848958333336 39.52777777777778)"/><use xlink:href="#g" transform="matrix(1,0,0,1,703,27) translate(18.613064236111114 71.79340277777777)"/><path d="M708 6a6 6 0 0 1 6-6h148a6 6 0 0 1 6 6v108a6 6 0 0 1-6 6H714a6 6 0 0 1-6-6z" stroke="#e08fff" stroke-width="2" fill="#f4d9ff"/><use xlink:href="#i" transform="matrix(1,0,0,1,720,11.999999999999993) translate(16.811848958333336 39.52777777777778)"/><use xlink:href="#g" transform="matrix(1,0,0,1,720,11.999999999999993) translate(18.613064236111114 71.79340277777777)"/><path d="M980 38a6 6 0 0 1 6-6h148a6 6 0 0 1 6 6v108a6 6 0 0 1-6 6H986a6 6 0 0 1-6-6z" stroke="#fcce14" stroke-width="2" fill="#fff3d9"/><g><use xlink:href="#d" transform="matrix(1,0,0,1,992,44) translate(26.968098958333336 39.52777777777778)"/><use xlink:href="#e" transform="matrix(1,0,0,1,992,44) translate(18.585937500000007 71.79340277777777)"/></g><path d="M997.33 21.67a6 6 0 0 1 6-6h148a6 6 0 0 1 6 6v108a6 6 0 0 1-6 6h-148a6 6 0 0 1-6-6z" stroke="#fcce14" stroke-width="2" fill="#fff3d9"/><g><use xlink:href="#f" transform="matrix(1,0,0,1,1009.3333333333333,27.66666666666663) translate(18.585937500000007 39.52777777777778)"/><use xlink:href="#g" transform="matrix(1,0,0,1,1009.3333333333333,27.66666666666663) translate(18.613064236111114 71.79340277777777)"/></g><path d="M1014 6a6 6 0 0 1 6-6h148a6 6 0 0 1 6 6v108a6 6 0 0 1-6 6h-148a6 6 0 0 1-6-6z" stroke="#fcce14" stroke-width="2" fill="#fff3d9"/><g><use xlink:href="#f" transform="matrix(1,0,0,1,1026,11.999999999999993) translate(18.585937500000007 39.52777777777778)"/><use xlink:href="#g" transform="matrix(1,0,0,1,1026,11.999999999999993) translate(18.613064236111114 71.79340277777777)"/></g><path d="M40 294a6 6 0 0 1 6-6h148a6 6 0 0 1 6 6v108a6 6 0 0 1-6 6H46a6 6 0 0 1-6-6z" stroke="#fcce14" stroke-width="2" fill="#fff3d9"/><g><use xlink:href="#d" transform="matrix(1,0,0,1,52,300) translate(26.968098958333336 39.52777777777778)"/><use xlink:href="#e" transform="matrix(1,0,0,1,52,300) translate(18.585937500000007 71.79340277777777)"/></g><path d="M57.33 277.67a6 6 0 0 1 6-6h148a6 6 0 0 1 6 6v108a6 6 0 0 1-6 6h-148a6 6 0 0 1-6-6z" stroke="#fcce14" stroke-width="2" fill="#fff3d9"/><g><use xlink:href="#f" transform="matrix(1,0,0,1,69.33333333333337,283.66666666666663) translate(18.585937500000007 39.52777777777778)"/><use xlink:href="#g" transform="matrix(1,0,0,1,69.33333333333337,283.66666666666663) translate(18.613064236111114 71.79340277777777)"/></g><path d="M74 262a6 6 0 0 1 6-6h148a6 6 0 0 1 6 6v108a6 6 0 0 1-6 6H80a6 6 0 0 1-6-6z" stroke="#fcce14" stroke-width="2" fill="#fff3d9"/><g><use xlink:href="#f" transform="matrix(1,0,0,1,86,268) translate(18.585937500000007 39.52777777777778)"/><use xlink:href="#g" transform="matrix(1,0,0,1,86,268) translate(18.613064236111114 71.79340277777777)"/></g><path d="M327 293a6 6 0 0 1 6-6h148a6 6 0 0 1 6 6v108a6 6 0 0 1-6 6H333a6 6 0 0 1-6-6z" stroke="#54c45e" stroke-width="2" fill="#c3f7c8"/><g><use xlink:href="#h" transform="matrix(1,0,0,1,339,299) translate(43.813802083333336 39.52777777777778)"/><use xlink:href="#g" transform="matrix(1,0,0,1,339,299) translate(18.613064236111114 71.79340277777777)"/></g><path d="M340.33 276.33a6 6 0 0 1 6-6h148a6 6 0 0 1 6 6v108a6 6 0 0 1-6 6h-148a6 6 0 0 1-6-6z" stroke="#54c45e" stroke-width="2" fill="#c3f7c8"/><g><use xlink:href="#h" transform="matrix(1,0,0,1,352.3333333333333,282.33333333333337) translate(43.813802083333336 39.52777777777778)"/><use xlink:href="#g" transform="matrix(1,0,0,1,352.3333333333333,282.33333333333337) translate(18.613064236111114 71.79340277777777)"/></g><path d="M354 262a6 6 0 0 1 6-6h148a6 6 0 0 1 6 6v108a6 6 0 0 1-6 6H360a6 6 0 0 1-6-6z" stroke="#54c45e" stroke-width="2" fill="#c3f7c8"/><g><use xlink:href="#h" transform="matrix(1,0,0,1,366,268) translate(43.813802083333336 39.52777777777778)"/><use xlink:href="#g" transform="matrix(1,0,0,1,366,268) translate(18.613064236111114 71.79340277777777)"/></g><path d="M540 294a6 6 0 0 1 6-6h148a6 6 0 0 1 6 6v108a6 6 0 0 1-6 6H546a6 6 0 0 1-6-6z" stroke="#e08fff" stroke-width="2" fill="#f4d9ff"/><g><use xlink:href="#i" transform="matrix(1,0,0,1,552,300) translate(16.811848958333336 39.52777777777778)"/><use xlink:href="#g" transform="matrix(1,0,0,1,552,300) translate(18.613064236111114 71.79340277777777)"/></g><path d="M557 277a6 6 0 0 1 6-6h148a6 6 0 0 1 6 6v108a6 6 0 0 1-6 6H563a6 6 0 0 1-6-6z" stroke="#e08fff" stroke-width="2" fill="#f4d9ff"/><g><use xlink:href="#i" transform="matrix(1,0,0,1,569.0000000000001,283) translate(16.811848958333336 39.52777777777778)"/><use xlink:href="#g" transform="matrix(1,0,0,1,569.0000000000001,283) translate(18.613064236111114 71.79340277777777)"/></g><path d="M574 262a6 6 0 0 1 6-6h148a6 6 0 0 1 6 6v108a6 6 0 0 1-6 6H580a6 6 0 0 1-6-6z" stroke="#e08fff" stroke-width="2" fill="#f4d9ff"/><g><use xlink:href="#i" transform="matrix(1,0,0,1,586,268) translate(16.811848958333336 39.52777777777778)"/><use xlink:href="#g" transform="matrix(1,0,0,1,586,268) translate(18.613064236111114 71.79340277777777)"/></g><path d="M835.33 298a6 6 0 0 1 6-6h148a6 6 0 0 1 6 6v108a6 6 0 0 1-6 6h-148a6 6 0 0 1-6-6z" stroke="#fcce14" stroke-width="2" fill="#fff3d9"/><g><use xlink:href="#d" transform="matrix(1,0,0,1,847.3333333333356,304) translate(26.968098958333336 39.52777777777778)"/><use xlink:href="#e" transform="matrix(1,0,0,1,847.3333333333356,304) translate(18.585937500000007 71.79340277777777)"/></g><path d="M852.67 281.67a6 6 0 0 1 6-6h148a6 6 0 0 1 6 6v108a6 6 0 0 1-6 6h-148a6 6 0 0 1-6-6z" stroke="#fcce14" stroke-width="2" fill="#fff3d9"/><g><use xlink:href="#f" transform="matrix(1,0,0,1,864.666666666669,287.66666666666663) translate(18.585937500000007 39.52777777777778)"/><use xlink:href="#g" transform="matrix(1,0,0,1,864.666666666669,287.66666666666663) translate(18.613064236111114 71.79340277777777)"/></g><path d="M869.33 266a6 6 0 0 1 6-6h148a6 6 0 0 1 6 6v108a6 6 0 0 1-6 6h-148a6 6 0 0 1-6-6z" stroke="#fcce14" stroke-width="2" fill="#fff3d9"/><g><use xlink:href="#f" transform="matrix(1,0,0,1,881.3333333333358,272) translate(18.585937500000007 39.52777777777778)"/><use xlink:href="#g" transform="matrix(1,0,0,1,881.3333333333358,272) translate(18.613064236111114 71.79340277777777)"/></g><path d="M1060 566a6 6 0 0 1 6-6h148a6 6 0 0 1 6 6v108a6 6 0 0 1-6 6h-148a6 6 0 0 1-6-6z" stroke="#6db1ff" stroke-width="2" fill="#edf5ff"/><g><use xlink:href="#j" transform="matrix(1,0,0,1,1072,572) translate(22.41080729166667 57.52777777777778)"/></g><path d="M1080 546a6 6 0 0 1 6-6h148a6 6 0 0 1 6 6v108a6 6 0 0 1-6 6h-148a6 6 0 0 1-6-6z" stroke="#6db1ff" stroke-width="2" fill="#edf5ff"/><g><use xlink:href="#j" transform="matrix(1,0,0,1,1092,552) translate(22.41080729166667 57.52777777777778)"/></g><path d="M1098.66 526a6 6 0 0 1 6-6h148a6 6 0 0 1 6 6v108a6 6 0 0 1-6 6h-148a6 6 0 0 1-6-6z" stroke="#6db1ff" stroke-width="2" fill="#edf5ff"/><g><use xlink:href="#j" transform="matrix(1,0,0,1,1110.6562500000002,532) translate(22.41080729166667 57.52777777777778)"/></g><defs><path d="M657 26c-323 0-524-166-541-416h195c15 169 171 246 346 246 202 0 356-106 356-265 5-203-294-238-475-293-239-73-380-191-380-389 0-252 224-419 512-419 294 0 499 171 508 396H992c-17-145-151-228-328-228-193 0-321 102-321 242 0 156 175 211 284 241l149 41c160 44 422 134 422 412 0 244-197 432-541 432" id="k"/><path d="M598-1118v154H368v674c0 100 37 144 132 144 23 0 62-6 92-12L629-6c-37 13-88 20-134 20-193 0-307-107-307-290v-688H20v-154h168v-266h180v266h230" id="l"/><path d="M613 24c-304 0-509-231-509-576 0-350 205-580 509-580 305 0 511 230 511 580 0 345-206 576-511 576zm0-161c226 0 329-195 329-415 0-222-103-419-329-419-223 0-326 196-326 419 0 220 103 415 326 415" id="m"/><path d="M158 0v-1118h174v172h12c41-113 157-188 290-188 26 0 70 2 91 3v181c-11-2-60-10-108-10-161 0-279 109-279 260V0H158" id="n"/><path d="M471 26C259 26 90-98 90-318c0-256 228-303 435-329 202-27 287-16 287-108 0-139-79-219-234-219-161 0-248 86-283 164l-173-57c86-203 278-265 451-265 150 0 419 46 419 395V0H815v-152h-12C765-73 660 26 471 26zm31-159c199 0 310-134 310-271v-155c-30 35-226 55-295 64-131 17-246 59-246 186 0 116 97 176 231 176" id="o"/><path d="M611 442c-248 0-391-105-460-228l146-94c47 65 117 165 314 165 178 0 307-82 307-266v-224h-17C863-141 792-18 576-18c-268 0-472-195-472-546 0-346 197-568 476-568 216 0 288 133 326 193h17v-179h175V29c0 289-215 413-487 413zm-5-620c203 0 314-146 314-390 0-237-108-403-314-403-213 0-319 180-319 403 0 230 109 390 319 390" id="p"/><path d="M628 24c-324 0-524-230-524-574 0-343 198-582 503-582 237 0 487 146 487 559v75H286c9 234 145 362 343 362 132 0 231-58 273-172l174 48C1024-91 857 24 628 24zM287-650h624c-17-190-120-322-304-322-192 0-309 151-320 322" id="q"/><g id="c"><use transform="matrix(0.010850694444444444,0,0,0.010850694444444444,0,0)" xlink:href="#k"/><use transform="matrix(0.010850694444444444,0,0,0.010850694444444444,14.2578125,0)" xlink:href="#l"/><use transform="matrix(0.010850694444444444,0,0,0.010850694444444444,21.31076388888889,0)" xlink:href="#m"/><use transform="matrix(0.010850694444444444,0,0,0.010850694444444444,34.635416666666664,0)" xlink:href="#n"/><use transform="matrix(0.010850694444444444,0,0,0.010850694444444444,43.00130208333333,0)" xlink:href="#o"/><use transform="matrix(0.010850694444444444,0,0,0.010850694444444444,55.47960069444444,0)" xlink:href="#p"/><use transform="matrix(0.010850694444444444,0,0,0.010850694444444444,69.10807291666666,0)" xlink:href="#q"/></g><g id="d"><use transform="matrix(0.010850694444444444,0,0,0.010850694444444444,0,0)" xlink:href="#k"/><use transform="matrix(0.010850694444444444,0,0,0.010850694444444444,14.2578125,0)" xlink:href="#l"/><use transform="matrix(0.010850694444444444,0,0,0.010850694444444444,21.31076388888889,0)" xlink:href="#m"/><use transform="matrix(0.010850694444444444,0,0,0.010850694444444444,34.635416666666664,0)" xlink:href="#n"/><use transform="matrix(0.010850694444444444,0,0,0.010850694444444444,43.00130208333333,0)" xlink:href="#o"/><use transform="matrix(0.010850694444444444,0,0,0.010850694444444444,55.47960069444444,0)" xlink:href="#p"/><use transform="matrix(0.010850694444444444,0,0,0.010850694444444444,69.10807291666666,0)" xlink:href="#q"/></g><path d="M180 0v-1490h270l367 940c28 72 75 218 110 339 35-117 81-264 110-339l362-940h271V0h-187c2-448-5-837 7-1287-157 497-311 829-483 1287H842C666-458 514-784 354-1284c12 438 5 843 7 1284H180" id="r"/><path d="M577 24c-279 0-473-224-473-580 0-354 195-576 474-576 218 0 287 134 324 193h14v-551h180V0H922v-173h-20C865-111 790 24 577 24zm27-161c203 0 314-172 314-421 0-247-108-413-314-413-212 0-317 181-317 413 0 235 108 421 317 421" id="s"/><g id="e"><use transform="matrix(0.010850694444444444,0,0,0.010850694444444444,0,0)" xlink:href="#r"/><use transform="matrix(0.010850694444444444,0,0,0.010850694444444444,20.07378472222222,0)" xlink:href="#q"/><use transform="matrix(0.010850694444444444,0,0,0.010850694444444444,33.029513888888886,0)" xlink:href="#l"/><use transform="matrix(0.010850694444444444,0,0,0.010850694444444444,40.40798611111111,0)" xlink:href="#o"/><use transform="matrix(0.010850694444444444,0,0,0.010850694444444444,52.88628472222221,0)" xlink:href="#s"/><use transform="matrix(0.010850694444444444,0,0,0.010850694444444444,66.49305555555554,0)" xlink:href="#o"/><use transform="matrix(0.010850694444444444,0,0,0.010850694444444444,78.97135416666666,0)" xlink:href="#l"/><use transform="matrix(0.010850694444444444,0,0,0.010850694444444444,86.34982638888887,0)" xlink:href="#o"/></g><g id="f"><use transform="matrix(0.010850694444444444,0,0,0.010850694444444444,0,0)" xlink:href="#r"/><use transform="matrix(0.010850694444444444,0,0,0.010850694444444444,20.07378472222222,0)" xlink:href="#q"/><use transform="matrix(0.010850694444444444,0,0,0.010850694444444444,33.029513888888886,0)" xlink:href="#l"/><use transform="matrix(0.010850694444444444,0,0,0.010850694444444444,40.40798611111111,0)" xlink:href="#o"/><use transform="matrix(0.010850694444444444,0,0,0.010850694444444444,52.88628472222221,0)" xlink:href="#s"/><use transform="matrix(0.010850694444444444,0,0,0.010850694444444444,66.49305555555554,0)" xlink:href="#o"/><use transform="matrix(0.010850694444444444,0,0,0.010850694444444444,78.97135416666666,0)" xlink:href="#l"/><use transform="matrix(0.010850694444444444,0,0,0.010850694444444444,86.34982638888887,0)" xlink:href="#o"/></g><path d="M180 0v-1490h510c348 0 508 194 508 460 0 198-88 351-276 417L1256 0h-220L726-579c-117 2-238 0-356 1V0H180zm190-747h312c235 0 327-108 327-283 0-177-92-293-329-293H370v576" id="t"/><path d="M538 24C308 24 148-78 108-271l171-41c32 123 123 178 257 178 156 0 256-77 256-169 0-77-54-128-164-154l-186-44c-203-48-300-148-300-305 0-192 176-326 414-326 230 0 351 112 402 269l-163 42c-31-80-94-158-238-158-133 0-233 69-233 162 0 83 57 129 188 160l169 40c203 48 298 149 298 302 0 196-179 339-441 339" id="u"/><path d="M537 14c-226 0-379-139-379-422v-710h180v695c0 172 97 275 253 275 160 0 281-109 281-300v-670h181V0H879v-209C806-46 684 14 537 14" id="v"/><path d="M613 24c-304 0-509-231-509-576 0-350 205-580 509-580 216 0 392 114 453 309l-173 49c-33-115-133-197-280-197-223 0-326 196-326 419 0 220 103 415 326 415 150 0 252-85 285-206l172 49C1010-95 832 24 613 24" id="w"/><g id="g"><use transform="matrix(0.010850694444444444,0,0,0.010850694444444444,0,0)" xlink:href="#t"/><use transform="matrix(0.010850694444444444,0,0,0.010850694444444444,13.975694444444445,0)" xlink:href="#q"/><use transform="matrix(0.010850694444444444,0,0,0.010850694444444444,26.931423611111104,0)" xlink:href="#u"/><use transform="matrix(0.010850694444444444,0,0,0.010850694444444444,38.66102430555555,0)" xlink:href="#m"/><use transform="matrix(0.010850694444444444,0,0,0.010850694444444444,51.98567708333333,0)" xlink:href="#v"/><use transform="matrix(0.010850694444444444,0,0,0.010850694444444444,65.12586805555554,0)" xlink:href="#n"/><use transform="matrix(0.010850694444444444,0,0,0.010850694444444444,73.1228298611111,0)" xlink:href="#w"/><use transform="matrix(0.010850694444444444,0,0,0.010850694444444444,85.8181423611111,0)" xlink:href="#q"/></g><path d="M645 0H180v-1490h484c435 0 692 280 692 742 0 466-257 748-711 748zM370-168h263c363 0 539-218 539-580 0-358-176-574-521-574H370v1154" id="x"/><g id="h"><use transform="matrix(0.010850694444444444,0,0,0.010850694444444444,0,0)" xlink:href="#x"/><use transform="matrix(0.010850694444444444,0,0,0.010850694444444444,16.03732638888889,0)" xlink:href="#o"/><use transform="matrix(0.010850694444444444,0,0,0.010850694444444444,28.515625,0)" xlink:href="#l"/><use transform="matrix(0.010850694444444444,0,0,0.010850694444444444,35.89409722222222,0)" xlink:href="#o"/></g><path d="M783 20c-382 0-661-292-661-764 0-473 279-766 661-766 302 0 548 182 601 489h-190c-42-204-217-313-411-313-268 0-476 208-476 590 0 381 209 588 476 588 195 0 369-110 411-313h190c-52 303-296 489-601 489" id="y"/><path d="M338-670V0H158v-1118h173l1 207c72-158 192-221 342-221 226 0 378 139 378 422V0H872v-695c0-172-96-275-252-275-161 0-282 109-282 300" id="z"/><path d="M158 0v-1118h180V0H158zm91-1301c-68 0-125-53-125-119s57-119 125-119c69 0 126 53 126 119s-57 119-126 119" id="A"/><g id="i"><use transform="matrix(0.010850694444444444,0,0,0.010850694444444444,0,0)" xlink:href="#y"/><use transform="matrix(0.010850694444444444,0,0,0.010850694444444444,16.23263888888889,0)" xlink:href="#m"/><use transform="matrix(0.010850694444444444,0,0,0.010850694444444444,29.557291666666664,0)" xlink:href="#z"/><use transform="matrix(0.010850694444444444,0,0,0.010850694444444444,42.68663194444444,0)" xlink:href="#l"/><use transform="matrix(0.010850694444444444,0,0,0.010850694444444444,50.065104166666664,0)" xlink:href="#o"/><use transform="matrix(0.010850694444444444,0,0,0.010850694444444444,62.54340277777778,0)" xlink:href="#A"/><use transform="matrix(0.010850694444444444,0,0,0.010850694444444444,67.92534722222221,0)" xlink:href="#z"/><use transform="matrix(0.010850694444444444,0,0,0.010850694444444444,81.05468749999999,0)" xlink:href="#q"/><use transform="matrix(0.010850694444444444,0,0,0.010850694444444444,94.01041666666666,0)" xlink:href="#n"/></g><path d="M481 0L54-1118h197c107 314 236 620 325 951 87-331 217-637 324-951h197L670 0H481" id="B"/><g id="j"><use transform="matrix(0.010850694444444444,0,0,0.010850694444444444,0,0)" xlink:href="#k"/><use transform="matrix(0.010850694444444444,0,0,0.010850694444444444,14.2578125,0)" xlink:href="#q"/><use transform="matrix(0.010850694444444444,0,0,0.010850694444444444,27.213541666666664,0)" xlink:href="#n"/><use transform="matrix(0.010850694444444444,0,0,0.010850694444444444,35.92664930555555,0)" xlink:href="#B"/><use transform="matrix(0.010850694444444444,0,0,0.010850694444444444,48.41579861111111,0)" xlink:href="#A"/><use transform="matrix(0.010850694444444444,0,0,0.010850694444444444,53.79774305555556,0)" xlink:href="#w"/><use transform="matrix(0.010850694444444444,0,0,0.010850694444444444,66.49305555555554,0)" xlink:href="#q"/><use transform="matrix(0.010850694444444444,0,0,0.010850694444444444,79.44878472222221,0)" xlink:href="#u"/></g></defs></g></svg>